<?xml version="1.0" standalone="no"?>
<!DOCTYPE svg PUBLIC "-//W3C//DTD SVG 1.1//EN" "http://www.w3.org/Graphics/SVG/1.1/DTD/svg11.dtd" >
<svg xmlns="http://www.w3.org/2000/svg">
<metadata>Generated by IcoMoon</metadata>
<defs>
<font id="icomoon" horiz-adv-x="1024">
<font-face units-per-em="1024" ascent="901.12" descent="-122.88" />
<missing-glyph horiz-adv-x="1024" />
<glyph unicode="&#x20;" d="" horiz-adv-x="0" />
<glyph unicode="&#xe600;" d="M954.857 554.285q0-22.857-16-38.857l-491.429-491.429q-16-16-38.857-16t-38.857 16l-284.571 284.571q-16 16-16 38.857t16 38.857l77.714 77.714q16 16 38.857 16t38.857-16l168-168.571 374.857 375.429q16 16 38.857 16t38.857-16l77.714-77.714q16-16 16-38.857z" />
<glyph unicode="&#xe601;" d="M741.714 122.285q0-22.857-16-38.857l-77.714-77.714q-16-16-38.857-16t-38.857 16l-168 168-168-168q-16-16-38.857-16t-38.857 16l-77.714 77.714q-16 16-16 38.857t16 38.857l168 168-168 168q-16 16-16 38.857t16 38.857l77.714 77.714q16 16 38.857 16t38.857-16l168-168 168 168q16 16 38.857 16t38.857-16l77.714-77.714q16-16 16-38.857t-16-38.857l-168-168 168-168q16-16 16-38.857z" horiz-adv-x="805" />
<glyph unicode="&#xe602;" d="M438.857 146.285c0 52.76 13.972 102.256 38.408 144.997h-185.733c-139.744 0-217.452-78.696-217.452-218.44v-145.297h463.079c-60.297 53.592-98.302 131.72-98.302 218.741zM539.029 366.685c36.775 32.128 81.661 55.193 131.183 65.738 37.908 39.438 61.217 93.010 61.217 152.032 0 121.188-98.243 219.429-219.429 219.429-121.188 0-219.429-98.241-219.429-219.429s98.241-219.429 219.429-219.429c9.153 0 18.173 0.569 27.029 1.659zM768 365.714c-141.385 0-256-114.615-256-256s114.615-256 256-256c141.385 0 256 114.615 256 256 0 141.385-114.615 256-256 256zM804.571 73.143v-146.286h-73.143v146.286h-146.286v73.143h146.286v146.286h73.143v-146.286h146.286v-73.143h-146.286z" />
<glyph unicode="&#xe603;" d="M731.429 584.749c0-121.187-98.242-219.429-219.429-219.429s-219.429 98.242-219.429 219.429c0 121.187 98.242 219.429 219.429 219.429 121.187 0 219.429-98.242 219.429-219.429zM732.221 291.575h-439.948c-139.744 0-217.452-78.696-217.452-218.44v-145.297h875.84v145.297c0 139.744-78.696 218.44-218.44 218.44z" />
<glyph unicode="&#xe604;" d="M657.792 510.548l0.166 220.346-438.746-365.194 438.677-366.28v220.824c92.211 51.787 236.892 52.495 366.112-76.725-47.118 202.096-161.774 289.076-366.208 367.029zM117.622 365.699l321.117 267.284 0.010 97.911-438.748-365.194 438.677-366.28 0.010 98.203z" />
<glyph unicode="&#xe605;" d="M438.786 510.548v220.346l-436.809-365.194 436.807-366.28v220.824c92.211 51.789 365.39 45.056 511.296-147.893-49.12 221.686-221.651 438.108-511.294 438.197z" />
<glyph unicode="&#xe606;" d="M950.857 365.714c0-242.374-196.483-438.857-438.857-438.857-242.374 0-438.857 196.483-438.857 438.857 0 242.374 196.483 438.857 438.857 438.857 242.374 0 438.857-196.483 438.857-438.857z" />
<glyph unicode="&#xe607;" d="M694.857 329.143v73.143q0 14.857-10.857 25.714t-25.714 10.857h-146.286v146.286q0 14.857-10.857 25.714t-25.714 10.857h-73.143q-14.857 0-25.714-10.857t-10.857-25.714v-146.286h-146.286q-14.857 0-25.714-10.857t-10.857-25.714v-73.143q0-14.857 10.857-25.714t25.714-10.857h146.286v-146.286q0-14.857 10.857-25.714t25.714-10.857h73.143q14.857 0 25.714 10.857t10.857 25.714v146.286h146.286q14.857 0 25.714 10.857t10.857 25.714zM877.714 365.714q0-119.429-58.857-220.286t-159.714-159.714-220.286-58.857-220.286 58.857-159.714 159.714-58.857 220.286 58.857 220.286 159.714 159.714 220.286 58.857 220.286-58.857 159.714-159.714 58.857-220.286z" horiz-adv-x="878" />
<glyph unicode="&#xe608;" d="M694.857 329.143v73.143q0 14.857-10.857 25.714t-25.714 10.857h-438.857q-14.857 0-25.714-10.857t-10.857-25.714v-73.143q0-14.857 10.857-25.714t25.714-10.857h438.857q14.857 0 25.714 10.857t10.857 25.714zM877.714 365.714q0-119.429-58.857-220.286t-159.714-159.714-220.286-58.857-220.286 58.857-159.714 159.714-58.857 220.286 58.857 220.286 159.714 159.714 220.286 58.857 220.286-58.857 159.714-159.714 58.857-220.286z" horiz-adv-x="878" />
<glyph unicode="&#xe609;" d="M656.571 236.571q0 14.857-10.857 25.714l-103.429 103.429 103.429 103.429q10.857 10.857 10.857 25.714 0 15.429-10.857 26.286l-51.429 51.429q-10.857 10.857-26.286 10.857-14.857 0-25.714-10.857l-103.429-103.429-103.429 103.429q-10.857 10.857-25.714 10.857-15.429 0-26.286-10.857l-51.429-51.429q-10.857-10.857-10.857-26.286 0-14.857 10.857-25.714l103.429-103.429-103.429-103.429q-10.857-10.857-10.857-25.714 0-15.429 10.857-26.286l51.429-51.429q10.857-10.857 26.286-10.857 14.857 0 25.714 10.857l103.429 103.429 103.429-103.429q10.857-10.857 25.714-10.857 15.429 0 26.286 10.857l51.429 51.429q10.857 10.857 10.857 26.286zM877.714 365.714q0-119.429-58.857-220.286t-159.714-159.714-220.286-58.857-220.286 58.857-159.714 159.714-58.857 220.286 58.857 220.286 159.714 159.714 220.286 58.857 220.286-58.857 159.714-159.714 58.857-220.286z" horiz-adv-x="878" />
<glyph unicode="&#xe60a;" d="M733.714 458.285q0 16-10.286 26.286l-52 51.429q-10.857 10.857-25.714 10.857t-25.714-10.857l-233.143-232.571-129.143 129.143q-10.857 10.857-25.714 10.857t-25.714-10.857l-52-51.429q-10.286-10.286-10.286-26.286 0-15.429 10.286-25.714l206.857-206.857q10.857-10.857 25.714-10.857 15.429 0 26.286 10.857l310.286 310.286q10.286 10.286 10.286 25.714zM877.714 365.714q0-119.429-58.857-220.286t-159.714-159.714-220.286-58.857-220.286 58.857-159.714 159.714-58.857 220.286 58.857 220.286 159.714 159.714 220.286 58.857 220.286-58.857 159.714-159.714 58.857-220.286z" horiz-adv-x="878" />
<glyph unicode="&#xe60b;" d="M512 91.428v109.714q0 8-5.143 13.143t-13.143 5.143h-109.714q-8 0-13.143-5.143t-5.143-13.143v-109.714q0-8 5.143-13.143t13.143-5.143h109.714q8 0 13.143 5.143t5.143 13.143zM658.286 475.428q0 50.286-31.714 93.143t-79.143 66.286-97.143 23.429q-138.857 0-212-121.714-8.571-13.714 4.571-24l75.429-57.143q4-3.429 10.857-3.429 9.143 0 14.286 6.857 30.286 38.857 49.143 52.571 19.429 13.714 49.143 13.714 27.429 0 48.857-14.857t21.429-33.714q0-21.714-11.429-34.857t-38.857-25.714q-36-16-66-49.429t-30-71.714v-20.571q0-8 5.143-13.143t13.143-5.143h109.714q8 0 13.143 5.143t5.143 13.143q0 10.857 12.286 28.286t31.143 28.286q18.286 10.286 28 16.286t26.286 20 25.429 27.429 16 34.571 7.143 46.286zM877.714 365.714q0-119.429-58.857-220.286t-159.714-159.714-220.286-58.857-220.286 58.857-159.714 159.714-58.857 220.286 58.857 220.286 159.714 159.714 220.286 58.857 220.286-58.857 159.714-159.714 58.857-220.286z" horiz-adv-x="878" />
<glyph unicode="&#xe60c;" d="M585.143 91.428v91.429q0 8-5.143 13.143t-13.143 5.143h-54.857v292.571q0 8-5.143 13.143t-13.143 5.143h-182.857q-8 0-13.143-5.143t-5.143-13.143v-91.429q0-8 5.143-13.143t13.143-5.143h54.857v-182.857h-54.857q-8 0-13.143-5.143t-5.143-13.143v-91.429q0-8 5.143-13.143t13.143-5.143h256q8 0 13.143 5.143t5.143 13.143zM512 603.428v91.429q0 8-5.143 13.143t-13.143 5.143h-109.714q-8 0-13.143-5.143t-5.143-13.143v-91.429q0-8 5.143-13.143t13.143-5.143h109.714q8 0 13.143 5.143t5.143 13.143zM877.714 365.714q0-119.429-58.857-220.286t-159.714-159.714-220.286-58.857-220.286 58.857-159.714 159.714-58.857 220.286 58.857 220.286 159.714 159.714 220.286 58.857 220.286-58.857 159.714-159.714 58.857-220.286z" horiz-adv-x="878" />
<glyph unicode="&#xe60d;" d="M626.857 261.143l-83.429-83.429q-5.714-5.714-13.143-5.714t-13.143 5.714l-78.286 78.286-78.286-78.286q-5.714-5.714-13.143-5.714t-13.143 5.714l-83.429 83.429q-5.714 5.714-5.714 13.143t5.714 13.143l78.286 78.286-78.286 78.286q-5.714 5.714-5.714 13.143t5.714 13.143l83.429 83.429q5.714 5.714 13.143 5.714t13.143-5.714l78.286-78.286 78.286 78.286q5.714 5.714 13.143 5.714t13.143-5.714l83.429-83.429q5.714-5.714 5.714-13.143t-5.714-13.143l-78.286-78.286 78.286-78.286q5.714-5.714 5.714-13.143t-5.714-13.143zM749.714 365.714q0 84.571-41.714 156t-113.143 113.143-156 41.714-156-41.714-113.143-113.143-41.714-156 41.714-156 113.143-113.143 156-41.714 156 41.714 113.143 113.143 41.714 156zM877.714 365.714q0-119.429-58.857-220.286t-159.714-159.714-220.286-58.857-220.286 58.857-159.714 159.714-58.857 220.286 58.857 220.286 159.714 159.714 220.286 58.857 220.286-58.857 159.714-159.714 58.857-220.286z" horiz-adv-x="878" />
<glyph unicode="&#xe60e;" d="M669.143 413.143l-241.143-241.143q-10.857-10.857-25.714-10.857t-25.714 10.857l-168 168q-10.857 10.857-10.857 25.714t10.857 25.714l58.286 58.286q10.857 10.857 25.714 10.857t25.714-10.857l84-84 157.143 157.143q10.857 10.857 25.714 10.857t25.714-10.857l58.286-58.286q10.857-10.857 10.857-25.714t-10.857-25.714zM749.714 365.714q0 84.571-41.714 156t-113.143 113.143-156 41.714-156-41.714-113.143-113.143-41.714-156 41.714-156 113.143-113.143 156-41.714 156 41.714 113.143 113.143 41.714 156zM877.714 365.714q0-119.429-58.857-220.286t-159.714-159.714-220.286-58.857-220.286 58.857-159.714 159.714-58.857 220.286 58.857 220.286 159.714 159.714 220.286 58.857 220.286-58.857 159.714-159.714 58.857-220.286z" horiz-adv-x="878" />
<glyph unicode="&#xe60f;" d="M749.714 367.428q0 92-49.714 168.571l-430.857-430.286q78.286-50.857 169.714-50.857 63.429 0 120.857 24.857t99.143 66.571 66.286 99.714 24.571 121.429zM178.857 196.571l431.429 430.857q-77.143 52-171.429 52-84.571 0-156-41.714t-113.143-113.714-41.714-156.571q0-92.571 50.857-170.857zM877.714 367.428q0-89.714-34.857-171.429t-93.429-140.571-140-93.714-170.571-34.857-170.571 34.857-140 93.714-93.429 140.571-34.857 171.429 34.857 171.143 93.429 140.286 140 93.714 170.571 34.857 170.571-34.857 140-93.714 93.429-140.286 34.857-171.143z" horiz-adv-x="878" />
<glyph unicode="&#xe610;" d="M438.857 804.571q119.429 0 220.286-58.857t159.714-159.714 58.857-220.286-58.857-220.286-159.714-159.714-220.286-58.857-220.286 58.857-159.714 159.714-58.857 220.286 58.857 220.286 159.714 159.714 220.286 58.857zM512 92v108.571q0 8-5.143 13.429t-12.571 5.429h-109.714q-7.429 0-13.143-5.714t-5.714-13.143v-108.571q0-7.429 5.714-13.143t13.143-5.714h109.714q7.429 0 12.571 5.429t5.143 13.429zM510.857 288.571l10.286 354.857q0 6.857-5.714 10.286-5.714 4.571-13.714 4.571h-125.714q-8 0-13.714-4.571-5.714-3.429-5.714-10.286l9.714-354.857q0-5.714 5.714-10t13.714-4.286h105.714q8 0 13.429 4.286t6 10z" horiz-adv-x="878" />
<glyph unicode="&#xe611;" d="M437.143 135.428q4.571-10.857-2.857-20l-200-219.429q-5.714-5.714-13.143-5.714-8 0-13.714 5.714l-202.857 219.429q-7.429 9.143-2.857 20 5.143 10.857 16.571 10.857h128v713.143q0 8 5.143 13.143t13.143 5.143h109.714q8 0 13.143-5.143t5.143-13.143v-713.143h128q12 0 16.571-10.857z" horiz-adv-x="439" />
<glyph unicode="&#xe612;" d="M437.143 596q-5.143-10.857-16.571-10.857h-128v-713.143q0-8-5.143-13.143t-13.143-5.143h-109.714q-8 0-13.143 5.143t-5.143 13.143v713.143h-128q-12 0-16.571 10.857t2.857 20l200 219.429q5.714 5.714 13.143 5.714 8 0 13.714-5.714l202.857-219.429q7.429-9.143 2.857-20z" horiz-adv-x="439" />
<glyph unicode="&#xe613;" d="M1024 420.571v-109.714q0-8-5.143-13.143t-13.143-5.143h-713.143v-128q0-12-10.857-16.571t-20 2.857l-219.429 200q-5.714 5.714-5.714 13.143 0 8 5.714 13.714l219.429 202.286q9.143 8 20 3.429 10.857-5.143 10.857-16.571v-128h713.143q8 0 13.143-5.143t5.143-13.143z" />
<glyph unicode="&#xe614;" d="M987.429 367.428q0-8-5.714-13.714l-219.429-202.286q-9.143-8-20-3.429-10.857 5.143-10.857 16.571v128h-713.143q-8 0-13.143 5.143t-5.143 13.143v109.714q0 8 5.143 13.143t13.143 5.143h713.143v128q0 12 10.857 16.571t20-2.857l219.429-200q5.714-5.714 5.714-13.143z" />
<glyph unicode="&#xe615;" d="M424-21.143l-372.571 372q-21.143 21.143-21.143 51.714t21.143 51.714l372.571 372q21.143 21.143 51.714 21.143t51.714-21.143l42.857-42.857q21.143-21.143 21.143-51.714t-21.143-51.714l-277.714-277.714 277.714-277.143q21.143-21.714 21.143-52t-21.143-51.429l-42.857-42.857q-21.143-21.143-51.714-21.143t-51.714 21.143z" horiz-adv-x="658" />
<glyph unicode="&#xe616;" d="M628 402.285q0-29.714-21.143-52l-372.571-372q-21.143-21.143-51.429-21.143t-51.429 21.143l-43.429 42.857q-21.143 22.286-21.143 52 0 30.286 21.143 51.429l277.714 277.714-277.714 277.143q-21.143 22.286-21.143 52 0 30.286 21.143 51.429l43.429 42.857q20.571 21.714 51.429 21.714t51.429-21.714l372.571-372q21.143-21.143 21.143-51.429z" horiz-adv-x="658" />
<glyph unicode="&#xe617;" d="M835.212 703.45c75.578 0 143.411 69.804 189.776 100.923v-588.79c-46.365-31.121-114.196-100.927-189.776-100.927s-143.413 22.407-189.776 53.529c-46.365 31.115-114.198 45.613-189.776 45.613-75.58 0-189.865-38.463-236.232-69.579v586.131c46.367 31.119 160.651 72.243 236.232 72.243 75.578 0 143.411-14.498 189.776-45.617 46.363-31.119 114.196-53.527 189.776-53.527zM72.649 876.435c40.122 0 73.534-28.322 73.534-63.259v-959.462h-146.183v959.462c0 34.935 32.527 63.259 72.649 63.259z" />
<glyph unicode="&#xe618;" d="M962.119 817.389c-40.97 40.97-90.302 61.454-148 61.454h-605.091c-57.696 0-107.030-20.484-148-61.454s-61.456-90.304-61.456-148v-605.091c0-57.698 20.484-107.032 61.454-148 40.97-40.972 90.304-61.456 148-61.456h605.091c57.7 0 107.032 20.484 148 61.456 40.972 40.97 61.456 90.304 61.456 148v605.091c0 57.696-20.484 107.030-61.454 148zM950.43 107.52c0-49.454-17.558-91.739-52.675-126.857s-77.401-52.675-126.857-52.675h-518.65c-49.454 0-91.739 17.558-126.855 52.675-35.118 35.118-52.675 77.403-52.675 126.857v518.648c0 49.454 17.558 91.741 52.675 126.855 35.116 35.118 77.403 52.675 126.855 52.675h518.65c49.456 0 91.739-17.558 126.857-52.675s52.675-77.403 52.675-126.857v-518.646zM877.714 544.015c0-13.136-4.406-24.299-13.213-33.493l-405.824-423.586c-8.811-9.194-19.505-13.792-32.090-13.792s-23.281 4.596-32.088 13.792l-235 245.284c-8.807 9.194-13.213 20.357-13.213 33.493s4.406 24.299 13.213 33.493l64.176 66.985c8.811 9.192 19.505 13.79 32.088 13.79 12.585 0 23.279-4.598 32.090-13.79l138.734-145.299 309.56 323.602c8.807 9.194 19.505 13.792 32.084 13.792 12.585 0 23.281-4.598 32.088-13.792l64.18-66.985c8.811-9.196 13.215-20.359 13.215-33.493v0z" />
<glyph unicode="&#xe619;" d="M962.119 817.389c-40.97 40.97-90.302 61.454-148 61.454h-605.091c-57.696 0-107.030-20.484-148-61.454s-61.456-90.304-61.456-148v-605.091c0-57.698 20.484-107.032 61.454-148 40.97-40.972 90.304-61.456 148-61.456h605.091c57.7 0 107.032 20.484 148 61.456 40.972 40.97 61.456 90.304 61.456 148v605.091c0 57.696-20.484 107.030-61.454 148zM950.43 107.52c0-49.454-17.558-91.739-52.675-126.857s-77.401-52.675-126.857-52.675h-518.65c-49.454 0-91.739 17.558-126.855 52.675-35.118 35.118-52.675 77.403-52.675 126.857v518.648c0 49.454 17.558 91.741 52.675 126.855 35.116 35.118 77.403 52.675 126.855 52.675h518.65c49.456 0 91.739-17.558 126.857-52.675s52.675-77.403 52.675-126.857v-518.646z" />
<glyph unicode="&#xe61a;" d="M548.571 493.714q68 0 116.286-48.286t48.286-116.286-48.286-116.286-116.286-48.286-116.286 48.286-48.286 116.286 48.286 116.286 116.286 48.286zM950.857 731.428q60.571 0 103.429-42.857t42.857-103.429v-512q0-60.571-42.857-103.429t-103.429-42.857h-804.571q-60.571 0-103.429 42.857t-42.857 103.429v512q0 60.571 42.857 103.429t103.429 42.857h128l29.143 77.714q10.857 28 39.714 48.286t59.143 20.286h292.571q30.286 0 59.143-20.286t39.714-48.286l29.143-77.714h128zM548.571 73.143q105.714 0 180.857 75.143t75.143 180.857-75.143 180.857-180.857 75.143-180.857-75.143-75.143-180.857 75.143-180.857 180.857-75.143z" horiz-adv-x="1097" />
<glyph unicode="&#xe61b;" d="M804.571 457.143v-109.714q0-22.857-16-38.857t-38.857-16h-237.714v-237.714q0-22.857-16-38.857t-38.857-16h-109.714q-22.857 0-38.857 16t-16 38.857v237.714h-237.714q-22.857 0-38.857 16t-16 38.857v109.714q0 22.857 16 38.857t38.857 16h237.714v237.714q0 22.857 16 38.857t38.857 16h109.714q22.857 0 38.857-16t16-38.857v-237.714h237.714q22.857 0 38.857-16t16-38.857z" horiz-adv-x="805" />
<glyph unicode="&#xe61c;" d="M440.628 587.305v218.976l-438.652-367.44 438.648-365.689v189.713c92.221 51.787 365.71 77.047 511.616-115.904-49.12 221.684-221.961 440.253-511.613 440.344z" />
<glyph unicode="&#xe61d;" d="M803.583 803.583h-583.166l-220.417-221.998v-622.703c0-17.396 14.233-31.629 31.629-31.629h960.741c17.396 0 31.629 14.233 31.629 31.629v622.703l-220.417 221.998zM512 70.573l-220.417 221.405h147.076v220.022h147.472v-219.033h148.263l-222.394-222.394zM182.857 657.89l73.143 73.143h512l72.55-73.143h-657.693z" />
<glyph unicode="&#xe61e;" d="M513.186 874.749c-241.371 0-437.869-145.1-439.253-146.483 0-361.563 1.384-451.114 74.922-583.166 129.285-231.883 364.133-290.792 364.133-290.792s235.836 57.724 364.528 289.408c73.341 131.855 72.55 222.789 72.55 584.352 0 1.186-195.707 146.681-436.88 146.681zM744.673 184.636l-51.793-51.793-180.88 181.078-181.078-181.078-51.793 51.793 181.078 181.078-181.078 181.078 51.793 51.793 181.078-181.078 181.078 181.078 51.793-51.793-181.078-181.078 180.88-181.078z" />
<glyph unicode="&#xe61f;" d="M218.242 512h585.144v-658.286h-585.144v658.286zM365.714 877.319v-145.89h-292.571v-146.286h877.714v146.286h-292.571v146.286M438.858 731.428v73.142h146.087v-73.142h-146.087z" />
<glyph unicode="&#xe620;" d="M877.714 109.714v-73.143q0-14.857-10.857-25.714t-25.714-10.857h-804.571q-14.857 0-25.714 10.857t-10.857 25.714v73.143q0 14.857 10.857 25.714t25.714 10.857h804.571q14.857 0 25.714-10.857t10.857-25.714zM877.714 402.285v-73.143q0-14.857-10.857-25.714t-25.714-10.857h-804.571q-14.857 0-25.714 10.857t-10.857 25.714v73.143q0 14.857 10.857 25.714t25.714 10.857h804.571q14.857 0 25.714-10.857t10.857-25.714zM877.714 694.857v-73.143q0-14.857-10.857-25.714t-25.714-10.857h-804.571q-14.857 0-25.714 10.857t-10.857 25.714v73.143q0 14.857 10.857 25.714t25.714 10.857h804.571q14.857 0 25.714-10.857t10.857-25.714z" horiz-adv-x="878" />
<glyph unicode="&#xe621;" d="M804.571 457.143v-109.714q0-22.857-16-38.857t-38.857-16h-694.857q-22.857 0-38.857 16t-16 38.857v109.714q0 22.857 16 38.857t38.857 16h694.857q22.857 0 38.857-16t16-38.857z" horiz-adv-x="805" />
<glyph unicode="&#xe622;" d="M512.55 260.847l-148.96 122.475-324.191-383.322h946.593l-324.223 387.131-149.219-126.284zM1021.44 731.428h-1017.524l508.78-428.671 508.744 428.671zM684.119 406.486l339.881-406.119v694.424l-339.881-288.305zM0 694.792v-694.424l339.885 406.121-339.885 288.303z" />
<glyph unicode="&#xe623;" d="M585.143 92v108.571q0 8-5.429 13.429t-12.857 5.429h-109.714q-7.429 0-12.857-5.429t-5.429-13.429v-108.571q0-8 5.429-13.429t12.857-5.429h109.714q7.429 0 12.857 5.429t5.429 13.429zM584 305.714l10.286 262.286q0 6.857-5.714 10.857-7.429 6.286-13.714 6.286h-125.714q-6.286 0-13.714-6.286-5.714-4-5.714-12l9.714-261.143q0-5.714 5.714-9.429t13.714-3.714h105.714q8 0 13.429 3.714t6 9.429zM576 839.428l438.857-804.571q20-36-1.143-72-9.714-16.571-26.571-26.286t-36.286-9.714h-877.714q-19.429 0-36.286 9.714t-26.571 26.286q-21.143 36-1.143 72l438.857 804.571q9.714 17.714 26.857 28t37.143 10.286 37.143-10.286 26.857-28z" />
<glyph unicode="&#xe624;" d="M863.429 274.285q0-2.857-0.571-4-36.571-153.143-153.143-248.286t-273.143-95.143q-83.429 0-161.429 31.429t-139.143 89.714l-73.714-73.714q-10.857-10.857-25.714-10.857t-25.714 10.857-10.857 25.714v256q0 14.857 10.857 25.714t25.714 10.857h256q14.857 0 25.714-10.857t10.857-25.714-10.857-25.714l-78.286-78.286q40.571-37.714 92-58.286t106.857-20.571q76.571 0 142.857 37.143t106.286 102.286q6.286 9.714 30.286 66.857 4.571 13.143 17.143 13.143h109.714q7.429 0 12.857-5.429t5.429-12.857zM877.714 731.428v-256q0-14.857-10.857-25.714t-25.714-10.857h-256q-14.857 0-25.714 10.857t-10.857 25.714 10.857 25.714l78.857 78.857q-84.571 78.286-199.429 78.286-76.571 0-142.857-37.143t-106.286-102.286q-6.286-9.714-30.286-66.857-4.571-13.143-17.143-13.143h-113.714q-7.429 0-12.857 5.429t-5.429 12.857v4q37.143 153.143 154.286 248.286t274.286 95.143q83.429 0 162.286-31.714t140-89.429l74.286 73.714q10.857 10.857 25.714 10.857t25.714-10.857 10.857-25.714z" horiz-adv-x="878" />
<glyph unicode="&#xe625;" d="M802.286 645.143q0 66.857-45.143 112t-112 45.143q-77.143 0-134.286-57.143l-444-443.429q-64.571-65.714-64.571-154.857 0-90.857 62.857-154.286t153.714-63.429q90.286 0 156 64.571l345.714 346.286q5.714 5.714 5.714 12.571 0 9.143-17.429 26.571t-26.571 17.429q-7.429 0-13.143-5.714l-346.286-346.857q-45.143-44-103.429-44-60.571 0-102.286 42.857t-41.714 103.429q0 60 43.429 103.429l443.429 444q36 36 82.857 36 36.571 0 60.571-24t24-60.571q0-46.857-36-82.857l-332-332q-14.857-13.714-34.286-13.714-16.571 0-27.429 10.857t-10.857 27.429q0 18.286 14.286 33.714l234.286 234.286q5.714 5.714 5.714 12.571 0 9.143-17.714 26.857t-26.857 17.714q-6.857 0-12.571-5.714l-234.286-234.286q-36-34.857-36-85.143 0-46.857 32.571-79.429t79.429-32.571q50.286 0 85.143 36l332 332q57.143 56 57.143 134.286z" horiz-adv-x="805" />
<glyph unicode="&#xe626;" d="M358.286 566.857q0-7.429-5.714-13.143l-224.571-224.571 224.571-224.571q5.714-5.714 5.714-13.143t-5.714-13.143l-28.571-28.571q-5.714-5.714-13.143-5.714t-13.143 5.714l-266.286 266.286q-5.714 5.714-5.714 13.143t5.714 13.143l266.286 266.286q5.714 5.714 13.143 5.714t13.143-5.714l28.571-28.571q5.714-5.714 5.714-13.143z" horiz-adv-x="366" />
<glyph unicode="&#xe627;" d="M340 329.143q0-7.429-5.714-13.143l-266.286-266.286q-5.714-5.714-13.143-5.714t-13.143 5.714l-28.571 28.571q-5.714 5.714-5.714 13.143t5.714 13.143l224.571 224.571-224.571 224.571q-5.714 5.714-5.714 13.143t5.714 13.143l28.571 28.571q5.714 5.714 13.143 5.714t13.143-5.714l266.286-266.286q5.714-5.714 5.714-13.143z" horiz-adv-x="366" />
<glyph unicode="&#xe628;" d="M614.286 201.143q0-7.429-5.714-13.143l-28.571-28.571q-5.714-5.714-13.143-5.714t-13.143 5.714l-224.571 224.571-224.571-224.571q-5.714-5.714-13.143-5.714t-13.143 5.714l-28.571 28.571q-5.714 5.714-5.714 13.143t5.714 13.143l266.286 266.286q5.714 5.714 13.143 5.714t13.143-5.714l266.286-266.286q5.714-5.714 5.714-13.143z" horiz-adv-x="658" />
<glyph unicode="&#xe629;" d="M614.286 457.143q0-7.429-5.714-13.143l-266.286-266.286q-5.714-5.714-13.143-5.714t-13.143 5.714l-266.286 266.286q-5.714 5.714-5.714 13.143t5.714 13.143l28.571 28.571q5.714 5.714 13.143 5.714t13.143-5.714l224.571-224.571 224.571 224.571q5.714 5.714 13.143 5.714t13.143-5.714l28.571-28.571q5.714-5.714 5.714-13.143z" horiz-adv-x="658" />
<glyph unicode="&#xe62a;" d="M358.286 91.428q0-7.429-5.714-13.143l-28.571-28.571q-5.714-5.714-13.143-5.714t-13.143 5.714l-266.286 266.286q-5.714 5.714-5.714 13.143t5.714 13.143l266.286 266.286q5.714 5.714 13.143 5.714t13.143-5.714l28.571-28.571q5.714-5.714 5.714-13.143t-5.714-13.143l-224.571-224.571 224.571-224.571q5.714-5.714 5.714-13.143zM577.714 91.428q0-7.429-5.714-13.143l-28.571-28.571q-5.714-5.714-13.143-5.714t-13.143 5.714l-266.286 266.286q-5.714 5.714-5.714 13.143t5.714 13.143l266.286 266.286q5.714 5.714 13.143 5.714t13.143-5.714l28.571-28.571q5.714-5.714 5.714-13.143t-5.714-13.143l-224.571-224.571 224.571-224.571q5.714-5.714 5.714-13.143z" horiz-adv-x="585" />
<glyph unicode="&#xe62b;" d="M340 329.143q0-7.429-5.714-13.143l-266.286-266.286q-5.714-5.714-13.143-5.714t-13.143 5.714l-28.571 28.571q-5.714 5.714-5.714 13.143t5.714 13.143l224.571 224.571-224.571 224.571q-5.714 5.714-5.714 13.143t5.714 13.143l28.571 28.571q5.714 5.714 13.143 5.714t13.143-5.714l266.286-266.286q5.714-5.714 5.714-13.143zM559.429 329.143q0-7.429-5.714-13.143l-266.286-266.286q-5.714-5.714-13.143-5.714t-13.143 5.714l-28.571 28.571q-5.714 5.714-5.714 13.143t5.714 13.143l224.571 224.571-224.571 224.571q-5.714 5.714-5.714 13.143t5.714 13.143l28.571 28.571q5.714 5.714 13.143 5.714t13.143-5.714l266.286-266.286q5.714-5.714 5.714-13.143z" horiz-adv-x="585" />
<glyph unicode="&#xe62c;" d="M614.286 128q0-7.429-5.714-13.143l-28.571-28.571q-5.714-5.714-13.143-5.714t-13.143 5.714l-224.571 224.571-224.571-224.571q-5.714-5.714-13.143-5.714t-13.143 5.714l-28.571 28.571q-5.714 5.714-5.714 13.143t5.714 13.143l266.286 266.286q5.714 5.714 13.143 5.714t13.143-5.714l266.286-266.286q5.714-5.714 5.714-13.143zM614.286 347.428q0-7.429-5.714-13.143l-28.571-28.571q-5.714-5.714-13.143-5.714t-13.143 5.714l-224.571 224.571-224.571-224.571q-5.714-5.714-13.143-5.714t-13.143 5.714l-28.571 28.571q-5.714 5.714-5.714 13.143t5.714 13.143l266.286 266.286q5.714 5.714 13.143 5.714t13.143-5.714l266.286-266.286q5.714-5.714 5.714-13.143z" horiz-adv-x="658" />
<glyph unicode="&#xe62d;" d="M614.286 384q0-7.429-5.714-13.143l-266.286-266.286q-5.714-5.714-13.143-5.714t-13.143 5.714l-266.286 266.286q-5.714 5.714-5.714 13.143t5.714 13.143l28.571 28.571q5.714 5.714 13.143 5.714t13.143-5.714l224.571-224.571 224.571 224.571q5.714 5.714 13.143 5.714t13.143-5.714l28.571-28.571q5.714-5.714 5.714-13.143zM614.286 603.428q0-7.429-5.714-13.143l-266.286-266.286q-5.714-5.714-13.143-5.714t-13.143 5.714l-266.286 266.286q-5.714 5.714-5.714 13.143t5.714 13.143l28.571 28.571q5.714 5.714 13.143 5.714t13.143-5.714l224.571-224.571 224.571 224.571q5.714 5.714 13.143 5.714t13.143-5.714l28.571-28.571q5.714-5.714 5.714-13.143z" horiz-adv-x="658" />
<glyph unicode="&#xe62e;" d="M619.935 365.714l-364.528 365.121 74.329 74.329 438.857-439.45-438.857-439.253-74.329 74.329z" />
<glyph unicode="&#xe62f;" d="M404.065 365.714l364.528 365.121-74.329 74.329-438.857-439.45 438.857-439.253 74.329 74.329z" />
<glyph unicode="&#xe630;" d="M1024 112.367v-72.961c0-9.882-3.618-18.43-10.857-25.653-7.237-7.219-15.811-10.831-25.713-10.831h-950.859c-9.91 0-18.481 3.608-25.715 10.831-7.237 7.219-10.857 15.771-10.857 25.653v72.961c0 9.88 3.62 18.428 10.857 25.653 7.233 7.219 15.805 10.831 25.715 10.831h950.859c9.902 0 18.475-3.61 25.713-10.831 7.239-7.221 10.857-15.773 10.857-25.653zM1024 331.254v-72.957c0-9.884-3.618-18.432-10.857-25.653-7.237-7.219-15.811-10.831-25.713-10.831h-950.859c-9.91 0-18.481 3.61-25.715 10.831-7.237 7.217-10.857 15.769-10.857 25.653v72.957c0 9.884 3.62 18.432 10.857 25.653 7.233 7.223 15.805 10.845 25.715 10.845h950.859c9.902 0 18.475-3.622 25.713-10.845 7.239-7.215 10.857-15.769 10.857-25.653zM1024 550.333v-72.965c0-9.88-3.618-18.43-10.857-25.649-7.237-7.221-15.811-10.831-25.713-10.831h-950.859c-9.91 0-18.481 3.61-25.715 10.831-7.237 7.221-10.857 15.771-10.857 25.651v72.965c0 9.88 3.62 18.43 10.857 25.651 7.233 7.221 15.805 10.829 25.715 10.829h950.859c9.902 0 18.475-3.608 25.713-10.829 7.239-7.221 10.857-15.773 10.857-25.653zM1024 769.223v-72.965c0-9.88-3.618-18.43-10.857-25.651-7.237-7.221-15.811-10.831-25.713-10.831h-950.859c-9.91 0-18.481 3.61-25.715 10.831-7.237 7.221-10.857 15.773-10.857 25.653v72.965c0 9.878 3.62 18.43 10.857 25.651 7.235 7.217 15.811 10.827 25.715 10.827h950.859c9.902 0 18.475-3.61 25.713-10.831 7.239-7.219 10.857-15.771 10.857-25.649z" />
<glyph unicode="&#xe631;" d="M1024 769.344v-292.998c0-9.845-3.618-18.367-10.857-25.564-7.237-7.198-15.811-10.794-25.713-10.794h-950.859c-9.908 0-18.479 3.596-25.715 10.794-7.237 7.196-10.857 15.72-10.857 25.566v292.998c0 9.845 3.62 18.369 10.857 25.564 7.237 7.194 15.811 10.79 25.715 10.79h950.859c9.902 0 18.475-3.598 25.713-10.792 7.239-7.198 10.857-15.72 10.857-25.564zM1024 258.19v-292.998c0-9.845-3.618-18.367-10.857-25.564-7.237-7.2-15.811-10.795-25.713-10.795h-950.859c-9.908 0-18.479 3.596-25.715 10.795-7.237 7.2-10.857 15.722-10.857 25.568v292.996c0 9.845 3.62 18.369 10.857 25.566 7.239 7.194 15.811 10.79 25.715 10.79h950.859c9.902 0 18.475-3.596 25.713-10.792 7.239-7.198 10.857-15.72 10.857-25.566z" />
<glyph unicode="&#xe633;" d="M2.714 645.143q0 66.857 45.143 112t112 45.143q77.143 0 134.286-57.143l444-443.429q64.571-65.714 64.571-154.857 0-90.857-62.857-154.286t-153.714-63.429q-90.286 0-156 64.571l-345.714 346.286q-5.714 5.714-5.714 12.571 0 9.143 17.429 26.571t26.571 17.429q7.429 0 13.143-5.714l346.286-346.857q45.143-44 103.429-44 60.571 0 102.286 42.857t41.714 103.429q0 60-43.429 103.429l-443.429 444q-36 36-82.857 36-36.571 0-60.571-24t-24-60.571q0-46.857 36-82.857l332-332q14.857-13.714 34.286-13.714 16.571 0 27.429 10.857t10.857 27.429q0 18.286-14.286 33.714l-234.286 234.286q-5.714 5.714-5.714 12.571 0 9.143 17.714 26.857t26.857 17.714q6.857 0 12.571-5.714l234.286-234.286q36-34.857 36-85.143 0-46.857-32.571-79.429t-79.429-32.571q-50.286 0-85.143 36l-332 332q-57.143 56-57.143 134.286z" horiz-adv-x="805" />
<glyph unicode="&#xe634;" d="M734.688 293.637v-293.321h-587.592v587.173h295.881l144.59 144.722h-492.678c-52.188 0-94.888-42.7-94.888-94.888v-688.721c0-52.188 42.7-94.888 94.888-94.888h689.15c52.186 0 94.888 42.7 94.888 94.888v492.41l-144.238-147.375zM923.17 688.63l-87.588 87.588c-18.574 18.576-48.873 18.681-67.325 0.227l-55.405-55.409 155.158-155.158 55.405 55.407c18.458 18.452 18.331 48.767-0.245 67.345zM221.706 220.551l-0.069-146.151 146.126 0.051 447.907 440.277-155.16 155.162z" />
<glyph unicode="&#xe635;" d="M960 587.679c35.346 0 64 28.654 64 64v153.922h-144.344v72.113h-815.656c-35.2 0-64-28.799-64-64v-896c0-35.2 28.797-64 64-64h815.656v148.684h80.344c35.346 0 64 28.654 64 64v154.78h-144.344v73.645h80.344c35.346 0 64 28.514 64 63.688v155.079h-144.344v74.092h80.344zM548.255 659.952c60.594 0 109.714-49.122 109.714-109.714s-49.12-109.714-109.714-109.714c-60.592 0-109.714 49.122-109.714 109.714s49.122 109.714 109.714 109.714zM221.813-71.765h-73.143v877.722h73.143v-877.722zM733.461 77.076h-365.783v249.826c0 21.745 17.792 39.537 39.537 39.537h286.708c21.745 0 39.537-17.792 39.537-39.537v-249.826z" />
</font>
</defs>
</svg>
